<?xml version="1.0" standalone="no"?>
<!DOCTYPE svg PUBLIC "-//W3C//DTD SVG 20010904//EN"
 "http://www.w3.org/TR/2001/REC-SVG-20010904/DTD/svg10.dtd">
<svg version="1.0" xmlns="http://www.w3.org/2000/svg"
 width="861.000000pt" height="290.000000pt" viewBox="0 0 861.000000 290.000000"
 preserveAspectRatio="xMidYMid meet">
<metadata>
Created by potrace 1.16, written by Peter Selinger 2001-2019
</metadata>
<g transform="translate(0.000000,290.000000) scale(0.100000,-0.100000)"
fill="#000000" stroke="none">
<path d="M7070 2030 c0 -185 -5 -222 -26 -189 -12 20 -89 48 -163 59 -134 21
-270 -10 -333 -77 -68 -71 -100 -237 -80 -417 13 -123 35 -179 90 -228 57 -52
104 -63 262 -63 130 0 137 1 195 30 64 32 97 71 115 134 6 22 10 218 10 494
l0 457 -35 0 -35 0 0 -200z m-103 -228 c86 -45 108 -117 101 -337 -4 -113 -9
-149 -26 -187 -30 -69 -61 -81 -206 -86 -165 -6 -223 14 -262 90 -24 47 -38
216 -26 314 25 187 85 237 277 231 79 -2 109 -8 142 -25z"/>
<path d="M900 1747 l5 -474 30 -48 c41 -66 97 -93 221 -108 165 -19 311 10
371 75 80 86 105 367 47 541 -24 73 -84 129 -160 150 -75 21 -219 22 -294 2
-30 -8 -56 -15 -57 -15 -2 0 -3 79 -3 175 l0 175 -82 0 -83 0 5 -473z m460
-15 c24 -12 43 -33 60 -67 22 -44 24 -61 23 -165 -1 -202 -28 -234 -198 -234
-117 0 -156 15 -174 65 -15 45 -14 321 1 355 19 42 79 64 173 64 56 0 90 -5
115 -18z"/>
<path d="M4540 2046 l0 -174 -47 14 c-64 19 -222 18 -297 -3 -78 -22 -135 -76
-167 -158 -20 -53 -23 -77 -23 -215 -1 -182 14 -248 70 -310 58 -64 122 -83
284 -84 181 -1 257 24 308 98 38 56 42 106 42 564 l0 442 -85 0 -85 0 0 -174z
m-43 -322 c42 -31 52 -74 52 -219 0 -214 -19 -240 -182 -239 -167 1 -197 29
-205 197 -5 112 8 192 40 233 34 43 73 54 175 52 75 -3 97 -7 120 -24z"/>
<path d="M5861 1899 c-115 -19 -192 -87 -225 -198 -36 -122 -29 -328 15 -430
42 -100 129 -151 269 -159 209 -12 323 64 360 239 8 36 11 106 8 191 -6 157
-26 223 -85 280 -51 49 -89 66 -170 78 -78 11 -98 11 -172 -1z m225 -88 c97
-44 128 -119 127 -311 -1 -243 -63 -316 -268 -314 -105 1 -148 17 -193 68 -40
46 -52 88 -59 213 -12 203 33 312 142 351 52 18 204 14 251 -7z"/>
<path d="M7586 1900 c-114 -18 -176 -65 -213 -161 -26 -67 -25 -373 1 -448 23
-67 77 -122 142 -146 56 -21 320 -32 414 -18 50 7 55 11 58 35 l3 26 -203 4
c-193 3 -205 4 -253 28 -59 30 -89 82 -100 174 -7 58 -7 59 17 52 71 -19 176
-28 288 -23 224 9 264 44 264 228 -1 136 -43 203 -150 235 -59 18 -196 25
-268 14z m271 -93 c18 -10 40 -31 49 -49 22 -42 29 -133 15 -185 -19 -69 -45
-78 -236 -78 -233 1 -264 20 -251 154 10 97 39 140 113 167 56 21 266 15 310
-9z"/>
<path d="M1951 1889 c-73 -12 -124 -43 -152 -93 -24 -40 -24 -46 -27 -353 l-3
-313 85 0 86 0 0 279 c0 264 1 280 20 304 24 30 90 47 185 47 l65 0 0 64 0 63
-67 6 c-83 8 -122 7 -192 -4z"/>
<path d="M3328 1886 c-76 -21 -123 -58 -155 -123 l-28 -58 -3 -287 -3 -288 85
0 86 0 0 260 c0 296 4 320 64 345 46 19 176 19 221 1 65 -28 70 -49 73 -343
l3 -263 80 0 79 0 0 273 c0 303 -7 350 -60 411 -53 60 -116 80 -265 83 -85 2
-146 -2 -177 -11z"/>
<path d="M5140 1893 c-60 -10 -119 -36 -149 -65 -74 -72 -95 -159 -89 -354 6
-165 22 -218 82 -279 58 -57 125 -75 288 -75 168 0 188 4 188 41 l0 29 -148 0
c-181 0 -237 13 -281 67 -48 58 -69 197 -53 341 13 113 42 168 106 201 44 22
62 25 212 29 l164 5 0 27 c0 27 -1 27 -82 33 -88 7 -196 7 -238 0z"/>
<path d="M2408 1883 l-48 -4 0 -65 0 -64 123 6 c236 13 296 -11 305 -121 4
-54 3 -58 -14 -51 -34 14 -227 19 -288 7 -84 -16 -127 -41 -154 -89 -42 -75
-38 -250 6 -312 10 -14 40 -36 68 -50 47 -24 57 -25 229 -25 172 0 182 1 230
25 69 35 85 70 97 223 7 84 6 159 -1 240 -16 165 -39 214 -126 260 -36 19 -58
22 -210 23 -93 1 -191 -1 -217 -3z m302 -413 c41 -6 69 -15 77 -26 8 -10 13
-46 13 -84 0 -87 -18 -106 -112 -116 -96 -10 -175 2 -204 31 -32 32 -35 134
-4 165 35 35 120 46 230 30z"/>
</g>
</svg>
